<?xml version="1.0" encoding="UTF-8"?>
<svg xmlns="http://www.w3.org/2000/svg" width="1200" height="1200" viewBox="0 0 1200 1200">
  <g transform="translate(0, 410.32916) rotate(0, 616.827, 502.3215) scale(1, 1)">
  <path id="" fill="#a52b00" d="M 1009.4 499.159 L 997.328 474.153 C 997.39105 473.206 997.439 472.255 997.439 471.3 C 997.439 442.954 967.961 416.829 918.37 395.911 L 918.37 413.30402 C 913.53406 411.385 908.499 409.517 903.25305 407.711 L 903.25305 399.603 C 832.379 374.043 726.87 357.825 609.012 357.825 C 506.03903 357.825 412.48303 370.20502 343.221 390.379 L 343.221 418.625 L 343.219 418.625 L 343.219 384.437 C 272.25903 406.987 228.26501 438.314 228.26501 472.952 C 228.26501 478.412 229.36603 483.79 231.482 489.065 L 224.25403 501.932 C 224.25403 501.932 218.46204 509.444 228.66003 525.294 C 237.65405 539.271 282.708 593.979 306.487 622.629 C 316.70105 637.316 323.62805 646.36304 324.23303 645.48804 C 325.18805 644.102 317.88202 616.527 297.59802 585.065 C 288.13202 568.17 276.83002 545.782 270.044 529.246 C 288.98602 541.236 400.27405 597.275 627.276 597.047 C 859.27 596.815 962.39105 524.196 973.70905 514.31 C 969.754 530.199 956.241 562.343 945.46405 584.948 C 927.75806 617.279 921.344 645.426 922.168 646.818 C 922.692 647.696 928.73303 638.377 937.64404 623.275 C 958.375 593.732 997.661 537.336 1005.51105 522.97 C 1014.40704 506.685 1009.4 499.159 1009.4 499.159 "
  />
  </g>
  <g transform="translate(0, 410.32916) rotate(0, 610.518, 396.57404) scale(1, 1)">
  <path id="" fill="#f74c00" d="M 1079.49 499.02002 L 1000.147 440.574 C 999.402 437.974 998.657 435.37302 997.88696 432.79303 L 1023.949 395.039 C 1026.609 391.199 1027.145 386.207 1025.418 381.828 C 1023.687 377.47 1019.903 374.346 1015.428 373.581 L 971.362 366.10202 C 969.653 362.617 967.864 359.186 966.068 355.78302 L 984.583 313.39502 C 986.48596 309.078 986.088 304.06 983.561 300.14102 C 981.044 296.204 976.775 293.90402 972.223 294.083 L 927.499 295.708 C 925.18396 292.69202 922.832 289.70502 920.432 286.771 L 930.70996 241.339 C 931.75195 236.727 930.436 231.89601 927.223 228.54501 C 924.02795 225.20601 919.385 223.82301 914.97 224.906 L 871.40796 235.615 C 868.588 233.12201 865.72 230.66202 862.82 228.25 L 864.38696 181.60901 C 864.555 176.888 862.354 172.401 858.575 169.78 C 854.798 167.14401 850.005 166.74802 845.874 168.70601 L 805.23596 188.02701 C 801.963 186.14902 798.671 184.29001 795.344 182.49002 L 788.16296 136.529 C 787.43396 131.87302 784.43896 127.91701 780.244 126.11101 C 776.05896 124.29401 771.268 124.88301 767.59595 127.647 L 731.364 154.83202 C 727.795 153.647 724.211 152.51201 720.58496 151.425 L 704.968 107.84001 C 703.38 103.397 699.718 100.134 695.25195 99.216 C 690.802 98.30701 686.224 99.84801 683.138 103.296005 L 652.639 137.41501 C 648.954 136.992 645.26196 136.60501 641.563 136.28401 L 618.014 96.60802 C 615.63 92.59001 611.417 90.14401 606.875 90.14401 C 602.34595 90.14401 598.125 92.59001 595.75696 96.60802 L 572.202 136.28401 C 568.501 136.60501 564.794 136.992 561.114 137.41501 L 530.615 103.296005 C 527.52496 99.84801 522.93097 98.30701 518.493 99.216 C 514.033 100.14601 510.365 103.397 508.786 107.84001 L 493.15698 151.425 C 489.536 152.51201 485.95197 153.65501 482.377 154.83202 L 446.15698 127.647 C 442.474 124.87302 437.67902 124.28601 433.489 126.11101 C 429.30798 127.91701 426.30096 131.87302 425.576 136.529 L 418.39 182.49002 C 415.068 184.29001 411.776 186.139 408.495 188.02701 L 367.86096 168.70601 C 363.734 166.74 358.91602 167.14401 355.15698 169.78 C 351.38397 172.401 349.177 176.888 349.347 181.60901 L 350.909 228.25 C 348.015 230.66202 345.153 233.12201 342.318 235.615 L 298.76398 224.906 C 294.341 223.832 289.70197 225.20601 286.49896 228.54501 C 283.278 231.89601 281.97296 236.727 283.008 241.339 L 293.265 286.771 C 290.88696 289.716 288.53198 292.69202 286.22296 295.708 L 241.49896 294.083 C 236.98596 293.948 232.67798 296.204 230.156 300.14102 C 227.62897 304.06 227.24597 309.078 229.12701 313.39502 L 247.65497 355.78302 C 245.85602 359.186 244.06897 362.617 242.34601 366.10202 L 198.28302 373.581 C 193.80402 374.33502 190.031 377.457 188.289 381.828 C 186.56097 386.207 187.12201 391.199 189.763 395.039 L 215.82898 432.79303 C 215.62799 433.46002 215.44202 434.13202 215.242 434.80103 L 141.54602 513.086 C 141.54602 513.086 130.25 521.937 146.693 542.74 C 161.193 561.091 235.64398 633.836 274.964 671.945 C 291.57 691.29297 302.948 703.27405 304.136 702.23804 C 306.01196 700.593 296.164 665.391 263.45398 624.089 C 238.23798 587.033 205.513 530.04004 213.18701 523.471 C 213.18701 523.471 221.91602 512.39 239.42902 504.414 C 240.07 504.92603 238.76697 503.907 239.42902 504.414 C 239.42902 504.414 609.024 674.905 951.858 507.298 C 991.022 500.273 1014.73096 521.253 1014.73096 521.253 C 1022.907 525.99304 1001.735 584.59705 984.324 623.39 C 960.645 667.44 957.173 701.812 959.18 703.004 C 960.448 703.761 969.063 690.651 981.352 669.787 C 1011.67596 627.534 1068.998 546.985 1079.49 527.419 C 1091.385 505.237 1079.49 499.02002 1079.49 499.02002 "
  />
  </g>
  <g transform="translate(0, 410.32916) rotate(0, 1038.5785, 355.34247) scale(1, 1)">
  <path id="" fill="#f74c00" d="M 917.896 477.14502 C 917.896 477.14502 971.075 474.67902 1040.928 403.68298 L 1050.8259 381.70398 C 1050.8259 381.70398 942.409 273.856 1110.944 199.413 C 1110.944 199.413 1096.189 223.525 1100.518 316.685 C 1100.518 316.685 1151.333 299.036 1166.2319 216.745 C 1166.2319 216.745 1240.352 314.469 1085.73 406.122 C 1085.73 406.122 1013.19 522.411 910.925 511.27197 L 917.896 477.14502 Z "
  />
  </g>
  <g transform="translate(0, 410.32916) rotate(0, 713.9325, 450.6125) scale(1, 1)">
  <path id="" fill="#000000" d="M 676.997 410.169 C 676.997 410.169 713.932 369.72598 750.86804 410.169 C 750.86804 410.169 779.89 464.096 750.86804 491.056 C 750.86804 491.056 703.381 528.804 676.997 491.056 C 676.997 491.056 645.339 461.397 676.997 410.169 "
  />
  </g>
  <g transform="translate(0, 410.32916) rotate(0, 699.03, 425.17102) scale(1, 1)">
  <path id="" fill="#ffffff" d="M 719.761 425.173 C 719.761 440.919 710.479 453.687 699.029 453.687 C 687.581 453.687 678.299 440.919 678.299 425.173 C 678.299 409.423 687.581 396.655 699.029 396.655 C 710.479 396.655 719.761 409.423 719.761 425.173 "
  />
  </g>
  <g transform="translate(0, 410.32916) rotate(0, 552.47205, 454.9575) scale(1, 1)">
  <path id="" fill="#000000" d="M 512.148 399.12698 C 512.148 399.12698 575.503 371.07498 592.796 433.689 C 592.796 433.689 610.91003 506.669 540.766 510.788 C 540.766 510.788 451.32202 493.56 512.148 399.12698 "
  />
  </g>
  <g transform="translate(0, 410) rotate(0, 522.588, 426.20502) scale(1, 1)">
  <path id="" fill="#ffffff" d="M 543.968 426.20602 C 543.968 442.445 534.396 455.61502 522.58704 455.61502 C 510.78302 455.61502 501.208 442.445 501.208 426.20602 C 501.208 409.962 510.78302 396.795 522.58704 396.795 C 534.396 396.795 543.968 409.962 543.968 426.20602 "
  />
  </g>
  <g transform="translate(0, 410) rotate(0, 633.715, 541.2035) scale(1, 1)">
  <path id="" fill="#000000" d="M 593.317 536.303 L 674.11304 529.819 C 674.11304 529.819 671.375 542.82495 660.834 552.58795 C 660.834 552.58795 633.044 583.058 601.161 550.055 C 601.161 550.055 595.94403 544.42596 593.317 536.303 "
  />
  </g>
  <g transform="translate(0, 410) rotate(0, 173.61449, 366.1485) scale(1, 1)">
  <path id="" fill="#f74c00" d="M 269.796 461.519 C 269.129 461.519 268.47498 461.568 267.823 461.62 C 241.58899 455.64902 167.84999 436.435 148.359 405.25702 C 148.359 405.25702 247.586 292.385 92.49899 220.238 L 110.555984 345.11603 C 110.555984 345.11603 62.746994 313.16702 52.429993 243.77002 C 52.429993 243.77002 -63.99301 328.264 103.813995 409.24402 C 103.813995 409.24402 119.034 466.43103 265.163 512.059 L 265.27 511.62402 C 266.741 511.896 268.24698 512.059 269.796 512.059 C 283.604 512.059 294.79898 500.747 294.79898 486.78802 C 294.79898 472.83203 283.604 461.519 269.796 461.519 "
  />
  </g>
  <path id="" fill="#f74c00" d="M 298.40076 377.73114 C 360.98676 377.73114 397.9528 340.03317 397.9528 295.7472 C 397.9528 256.58517 376.35873 235.35718 343.41873 221.8152 L 307.91675 207.54118 C 284.85873 198.02518 265.82672 191.0712 265.82672 171.67317 C 265.82672 153.73918 280.46674 143.12518 304.25674 143.12518 C 326.94873 143.12518 344.88275 151.54318 362.08472 165.45119 L 389.53473 131.77917 C 367.57477 109.453186 336.09875 96.64318 304.25674 96.64318 C 249.72276 96.64318 210.56073 131.04718 210.56073 174.96718 C 210.56073 214.49516 238.37674 236.45518 265.82672 247.43518 L 301.69473 263.1732 C 325.85074 273.42117 342.68674 279.6432 342.68674 299.7732 C 342.68674 318.80518 327.68073 330.88318 299.49875 330.88318 C 275.70874 330.88318 249.72276 318.80518 230.69073 300.8712 L 199.58073 338.2032 C 225.93274 363.82318 262.16675 377.73114 298.40076 377.73114 Z M 576.5607 372.60718 L 641.3428 372.60718 L 724.0587 101.40118 L 669.15875 101.40118 L 634.0227 233.52718 C 625.60474 263.53918 619.7487 290.62317 610.9647 321.0012 L 609.13477 321.0012 C 600.71674 290.62317 594.8607 263.53918 586.44275 233.52718 L 550.94073 101.40118 L 493.84476 101.40118 Z M 955.00476 377.73114 C 992.3368 377.73114 1024.5448 363.45715 1043.2108 345.1572 L 1043.2108 222.91316 L 946.58685 222.91316 L 946.58685 267.1992 L 994.5328 267.1992 L 994.5328 320.6352 C 987.21277 327.22318 973.67084 330.88318 960.86084 330.88318 C 907.4248 330.88318 880.7068 295.38116 880.7068 236.45518 C 880.7068 178.26117 911.45074 143.12518 956.8348 143.12518 C 980.9908 143.12518 996.3628 153.00719 1009.9048 165.81718 L 1038.8188 131.41318 C 1021.2508 113.47919 994.1668 96.64318 955.00476 96.64318 C 882.9028 96.64318 825.0747 148.98119 825.0747 238.28517 C 825.0747 328.6872 881.4388 377.73114 955.00476 377.73114 Z "
  />
</svg>
